<?xml version="1.0" encoding="utf-8"?>
<!-- Generator: Adobe Illustrator 24.2.1, SVG Export Plug-In . SVG Version: 6.00 Build 0)  -->
<svg version="1.1" id="Calque_1" xmlns="http://www.w3.org/2000/svg" xmlns:xlink="http://www.w3.org/1999/xlink" x="0px" y="0px"
	 viewBox="0 0 50 50" style="enable-background:new 0 0 50 50;" xml:space="preserve">
<style type="text/css">
	.st0{fill:none;stroke:#29ABE2;stroke-linejoin:round;stroke-miterlimit:10;}
</style>
<g>
	<path class="st0" d="M43.84,44.89c0,1.73-1.41,3.14-3.14,3.14H9.3c-1.73,0-3.14-1.41-3.14-3.14V26.05c0-1.73,1.41-3.14,3.14-3.14
		h1.05v-6.28c0-8.05,6.61-14.66,14.66-14.66c8.05,0,14.66,6.61,14.66,14.66v6.28h1.05c1.73,0,3.14,1.41,3.14,3.14V44.89z
		 M33.38,22.91v-6.28c0-4.61-3.76-8.38-8.38-8.38s-8.38,3.76-8.38,8.38v6.28H33.38z"/>
</g>
</svg>
